<?xml version="1.0" standalone="no"?>
<!DOCTYPE svg PUBLIC "-//W3C//DTD SVG 20010904//EN"
 "http://www.w3.org/TR/2001/REC-SVG-20010904/DTD/svg10.dtd">
<svg version="1.0" xmlns="http://www.w3.org/2000/svg"
 width="748.000000pt" height="748.000000pt" viewBox="0 0 748.000000 748.000000"
 preserveAspectRatio="xMidYMid meet">
<metadata>
Created by potrace 1.11, written by Peter Selinger 2001-2013
</metadata>
<g transform="translate(0.000000,748.000000) scale(0.100000,-0.100000)"
fill="#000000" stroke="none">
<path d="M0 3740 l0 -3740 3740 0 3740 0 0 3740 0 3740 -3740 0 -3740 0 0
-3740z m2877 2601 c154 -23 275 -51 356 -81 l57 -21 0 -402 0 -403 -77 8
c-169 15 -498 21 -558 9 -137 -25 -203 -92 -212 -215 l-6 -66 197 0 196 0 0
-420 0 -420 -195 0 -195 0 0 -580 0 -580 195 0 195 0 0 -420 0 -420 -895 0
-895 0 0 420 0 420 110 0 110 0 0 580 0 580 -110 0 -110 0 0 420 0 420 115 0
115 0 0 47 c0 101 23 283 50 389 78 313 238 513 513 645 95 45 282 94 412 108
139 15 478 5 632 -18z m2553 -1126 c427 -91 682 -413 780 -985 41 -240 43
-674 5 -930 -71 -466 -265 -794 -560 -942 -187 -95 -477 -123 -690 -68 -156
40 -318 142 -471 296 l-84 85 0 -315 0 -316 175 0 175 0 0 -420 0 -420 -875 0
-875 0 0 420 0 420 115 0 115 0 0 1145 0 1145 -115 0 -115 0 0 420 0 420 700
0 700 0 0 -172 0 -172 87 88 c188 189 373 289 588 317 78 10 263 1 345 -16z"/>
<path d="M4591 4311 c-87 -31 -136 -78 -163 -160 -16 -49 -23 -648 -8 -743 17
-111 53 -167 135 -211 34 -19 57 -22 150 -22 93 0 116 3 150 22 58 31 84 59
114 122 l26 56 0 375 c0 371 0 376 -23 426 -13 29 -35 63 -50 77 -72 69 -226
96 -331 58z"/>
</g>
</svg>
